<mxfile host="app.diagrams.net" agent="Mozilla/5.0 (Windows NT 10.0; Win64; x64) AppleWebKit/537.36 (KHTML, like Gecko) Chrome/130.0.0.0 Safari/537.36 Edg/130.0.0.0" version="24.8.0">
  <diagram id="axB7szs_uBeu4hfYstc7" name="Página-1">
    <mxGraphModel dx="1678" dy="931" grid="1" gridSize="10" guides="1" tooltips="1" connect="1" arrows="1" fold="1" page="1" pageScale="1" pageWidth="827" pageHeight="1169" math="0" shadow="0">
      <root>
        <mxCell id="0" />
        <mxCell id="1" parent="0" />
        <mxCell id="zyg5xjp4BJOo1bfxlwmu-9" value="ME GUSTA" style="rounded=0;whiteSpace=wrap;html=1;" parent="1" vertex="1">
          <mxGeometry x="1074.8999999999999" y="655" width="140" height="70" as="geometry" />
        </mxCell>
        <mxCell id="zyg5xjp4BJOo1bfxlwmu-1" value="" style="rounded=0;whiteSpace=wrap;html=1;" parent="1" vertex="1">
          <mxGeometry x="680" y="425" width="140" height="70" as="geometry" />
        </mxCell>
        <mxCell id="F3HrLOQjKa00HK4MqhvZ-8" value="" style="ellipse;whiteSpace=wrap;html=1;" parent="1" vertex="1">
          <mxGeometry x="1309.8999999999999" y="338" width="105" height="70" as="geometry" />
        </mxCell>
        <mxCell id="v1AuQ7H95rM6WsMichzJ-2" value="TELÉFONO" style="ellipse;whiteSpace=wrap;html=1;" parent="1" vertex="1">
          <mxGeometry x="237.5" y="547" width="112.5" height="75" as="geometry" />
        </mxCell>
        <mxCell id="SdneMGF3WSqkRSDgV3Lc-28" value="UBICACIÓN" style="ellipse;whiteSpace=wrap;html=1;dashed=1;" parent="1" vertex="1">
          <mxGeometry x="1212.3999999999999" y="425" width="105" height="70" as="geometry" />
        </mxCell>
        <mxCell id="SdneMGF3WSqkRSDgV3Lc-23" value="AFICIONES" style="ellipse;whiteSpace=wrap;html=1;" parent="1" vertex="1">
          <mxGeometry x="532.5" y="550" width="105" height="70" as="geometry" />
        </mxCell>
        <mxCell id="EXCapHJ6gCYgwVX0uH0I-9" style="edgeStyle=orthogonalEdgeStyle;rounded=0;orthogonalLoop=1;jettySize=auto;html=1;entryX=0;entryY=0.5;entryDx=0;entryDy=0;endArrow=baseDash;endFill=0;" parent="1" source="EXCapHJ6gCYgwVX0uH0I-1" target="EXCapHJ6gCYgwVX0uH0I-7" edge="1">
          <mxGeometry relative="1" as="geometry" />
        </mxCell>
        <mxCell id="SdneMGF3WSqkRSDgV3Lc-27" value="&lt;span style=&quot;font-size: 12px; background-color: rgb(251, 251, 251);&quot;&gt;0:1&lt;/span&gt;" style="edgeLabel;html=1;align=center;verticalAlign=middle;resizable=0;points=[];" parent="EXCapHJ6gCYgwVX0uH0I-9" vertex="1" connectable="0">
          <mxGeometry x="-0.0338" y="-1" relative="1" as="geometry">
            <mxPoint as="offset" />
          </mxGeometry>
        </mxCell>
        <mxCell id="x9cMc5ZENm_dU33en5SK-5" style="edgeStyle=orthogonalEdgeStyle;rounded=0;orthogonalLoop=1;jettySize=auto;html=1;entryX=1;entryY=0.5;entryDx=0;entryDy=0;endArrow=baseDash;endFill=0;" parent="1" source="EXCapHJ6gCYgwVX0uH0I-1" target="x9cMc5ZENm_dU33en5SK-1" edge="1">
          <mxGeometry relative="1" as="geometry" />
        </mxCell>
        <mxCell id="x9cMc5ZENm_dU33en5SK-14" value="1:1" style="edgeLabel;html=1;align=center;verticalAlign=middle;resizable=0;points=[];" parent="x9cMc5ZENm_dU33en5SK-5" vertex="1" connectable="0">
          <mxGeometry x="-0.0371" y="1" relative="1" as="geometry">
            <mxPoint x="11" y="-1" as="offset" />
          </mxGeometry>
        </mxCell>
        <mxCell id="EXCapHJ6gCYgwVX0uH0I-1" value="ENLAZAR" style="rhombus;whiteSpace=wrap;html=1;strokeWidth=1;" parent="1" vertex="1">
          <mxGeometry x="879.9" y="410" width="130" height="100" as="geometry" />
        </mxCell>
        <mxCell id="EXCapHJ6gCYgwVX0uH0I-4" value="&lt;h1 style=&quot;margin-top: 0px;&quot;&gt;&lt;span style=&quot;background-color: initial;&quot;&gt;DATOS&lt;/span&gt;&lt;/h1&gt;&lt;h1 style=&quot;margin-top: 0px;&quot;&gt;&lt;span style=&quot;font-size: 12px; font-weight: 400;&quot;&gt;PERSONAS: AFICIONES, DNI, NOMBRE, DIRECCION, TELEF, FOTO, EMAIL Y PASSWORD,&amp;nbsp;&lt;/span&gt;&lt;/h1&gt;&lt;div&gt;&lt;span style=&quot;font-size: 12px; font-weight: 400;&quot;&gt;CITAS: FECHA, UBICACIÓN (DESCRIPCION), NOMBRE, ME GUSTA&lt;/span&gt;&lt;/div&gt;&lt;div&gt;&lt;span style=&quot;font-size: 12px; font-weight: 400;&quot;&gt;&lt;br&gt;&lt;/span&gt;&lt;/div&gt;&lt;div&gt;&lt;span style=&quot;font-size: 12px; font-weight: 400;&quot;&gt;&lt;br&gt;&lt;/span&gt;&lt;/div&gt;&lt;div&gt;&lt;span style=&quot;font-size: 12px; font-weight: 400;&quot;&gt;&lt;br&gt;&lt;/span&gt;&lt;/div&gt;&lt;div&gt;&lt;span style=&quot;font-size: 12px; font-weight: 400;&quot;&gt;&lt;br&gt;&lt;/span&gt;&lt;/div&gt;&lt;div&gt;&lt;span style=&quot;font-size: 12px; font-weight: 400;&quot;&gt;&lt;br&gt;&lt;/span&gt;&lt;/div&gt;&lt;div&gt;&lt;span style=&quot;font-size: 12px; font-weight: 400;&quot;&gt;&lt;br&gt;&lt;/span&gt;&lt;/div&gt;&lt;div&gt;&lt;br&gt;&lt;/div&gt;" style="text;html=1;whiteSpace=wrap;overflow=hidden;rounded=0;" parent="1" vertex="1">
          <mxGeometry x="44" y="20" width="370" height="160" as="geometry" />
        </mxCell>
        <mxCell id="EXCapHJ6gCYgwVX0uH0I-5" value="PERSONAS" style="rounded=0;whiteSpace=wrap;html=1;strokeWidth=1;" parent="1" vertex="1">
          <mxGeometry x="350" y="430" width="120" height="60" as="geometry" />
        </mxCell>
        <mxCell id="EXCapHJ6gCYgwVX0uH0I-7" value="CITA" style="rounded=0;whiteSpace=wrap;html=1;strokeWidth=1;" parent="1" vertex="1">
          <mxGeometry x="1079.8999999999999" y="430" width="120" height="60" as="geometry" />
        </mxCell>
        <mxCell id="SdneMGF3WSqkRSDgV3Lc-2" value="TELÉFONO" style="ellipse;whiteSpace=wrap;html=1;" parent="1" vertex="1">
          <mxGeometry x="250" y="554.5" width="90" height="60" as="geometry" />
        </mxCell>
        <mxCell id="SdneMGF3WSqkRSDgV3Lc-3" value="DIRECCIÓN" style="ellipse;whiteSpace=wrap;html=1;dashed=1;" parent="1" vertex="1">
          <mxGeometry x="220" y="480" width="90" height="60" as="geometry" />
        </mxCell>
        <mxCell id="SdneMGF3WSqkRSDgV3Lc-4" value="NOMBRE" style="ellipse;whiteSpace=wrap;html=1;" parent="1" vertex="1">
          <mxGeometry x="220" y="403" width="90" height="60" as="geometry" />
        </mxCell>
        <mxCell id="SdneMGF3WSqkRSDgV3Lc-5" value="&lt;u&gt;DNI&lt;/u&gt;" style="ellipse;whiteSpace=wrap;html=1;" parent="1" vertex="1">
          <mxGeometry x="230" y="330" width="90" height="60" as="geometry" />
        </mxCell>
        <mxCell id="SdneMGF3WSqkRSDgV3Lc-8" value="FOTO" style="ellipse;whiteSpace=wrap;html=1;" parent="1" vertex="1">
          <mxGeometry x="280" y="260" width="90" height="60" as="geometry" />
        </mxCell>
        <mxCell id="SdneMGF3WSqkRSDgV3Lc-14" value="FECHA" style="ellipse;whiteSpace=wrap;html=1;" parent="1" vertex="1">
          <mxGeometry x="1059.8999999999999" y="340" width="90" height="60" as="geometry" />
        </mxCell>
        <mxCell id="SdneMGF3WSqkRSDgV3Lc-19" style="edgeStyle=orthogonalEdgeStyle;rounded=0;orthogonalLoop=1;jettySize=auto;html=1;entryX=1;entryY=0.5;entryDx=0;entryDy=0;endArrow=baseDash;endFill=0;exitX=0;exitY=0.5;exitDx=0;exitDy=0;" parent="1" source="SdneMGF3WSqkRSDgV3Lc-28" target="EXCapHJ6gCYgwVX0uH0I-7" edge="1">
          <mxGeometry relative="1" as="geometry">
            <mxPoint x="1219.8999999999999" y="460" as="sourcePoint" />
          </mxGeometry>
        </mxCell>
        <mxCell id="SdneMGF3WSqkRSDgV3Lc-18" style="edgeStyle=orthogonalEdgeStyle;rounded=0;orthogonalLoop=1;jettySize=auto;html=1;entryX=0.543;entryY=1.007;entryDx=0;entryDy=0;entryPerimeter=0;endArrow=baseDash;endFill=0;" parent="1" source="SdneMGF3WSqkRSDgV3Lc-30" target="EXCapHJ6gCYgwVX0uH0I-7" edge="1">
          <mxGeometry relative="1" as="geometry">
            <mxPoint x="1145.12" y="520" as="sourcePoint" />
          </mxGeometry>
        </mxCell>
        <mxCell id="SdneMGF3WSqkRSDgV3Lc-32" value="1:N" style="edgeLabel;html=1;align=center;verticalAlign=middle;resizable=0;points=[];" parent="SdneMGF3WSqkRSDgV3Lc-18" vertex="1" connectable="0">
          <mxGeometry x="0.0892" y="-1" relative="1" as="geometry">
            <mxPoint x="-1" y="11" as="offset" />
          </mxGeometry>
        </mxCell>
        <mxCell id="SdneMGF3WSqkRSDgV3Lc-20" value="AFICIONES" style="ellipse;whiteSpace=wrap;html=1;" parent="1" vertex="1">
          <mxGeometry x="540" y="555" width="90" height="60" as="geometry" />
        </mxCell>
        <mxCell id="SdneMGF3WSqkRSDgV3Lc-29" value="ME GUSTA" style="rounded=0;whiteSpace=wrap;html=1;" parent="1" vertex="1">
          <mxGeometry x="1084.78" y="660" width="120" height="60" as="geometry" />
        </mxCell>
        <mxCell id="SdneMGF3WSqkRSDgV3Lc-31" style="edgeStyle=orthogonalEdgeStyle;rounded=0;orthogonalLoop=1;jettySize=auto;html=1;entryX=0.5;entryY=0;entryDx=0;entryDy=0;endArrow=baseDash;endFill=0;" parent="1" source="SdneMGF3WSqkRSDgV3Lc-30" target="SdneMGF3WSqkRSDgV3Lc-29" edge="1">
          <mxGeometry relative="1" as="geometry" />
        </mxCell>
        <mxCell id="SdneMGF3WSqkRSDgV3Lc-33" value="0:1" style="edgeLabel;html=1;align=center;verticalAlign=middle;resizable=0;points=[];" parent="SdneMGF3WSqkRSDgV3Lc-31" vertex="1" connectable="0">
          <mxGeometry x="-0.5209" y="-1" relative="1" as="geometry">
            <mxPoint as="offset" />
          </mxGeometry>
        </mxCell>
        <mxCell id="SdneMGF3WSqkRSDgV3Lc-30" value="REALIZAR" style="rhombus;whiteSpace=wrap;html=1;" parent="1" vertex="1">
          <mxGeometry x="1104.8999999999999" y="530" width="80" height="80" as="geometry" />
        </mxCell>
        <mxCell id="F3HrLOQjKa00HK4MqhvZ-4" value="&lt;u&gt;CÓDIGO&lt;/u&gt;" style="ellipse;whiteSpace=wrap;html=1;" parent="1" vertex="1">
          <mxGeometry x="1159.8999999999999" y="330" width="90" height="60" as="geometry" />
        </mxCell>
        <mxCell id="F3HrLOQjKa00HK4MqhvZ-6" value="DESCRIPCIÓN" style="ellipse;whiteSpace=wrap;html=1;" parent="1" vertex="1">
          <mxGeometry x="1349.8999999999999" y="470" width="90" height="60" as="geometry" />
        </mxCell>
        <mxCell id="F3HrLOQjKa00HK4MqhvZ-7" value="UBICACIONES" style="ellipse;whiteSpace=wrap;html=1;" parent="1" vertex="1">
          <mxGeometry x="1317.3999999999999" y="343" width="90" height="60" as="geometry" />
        </mxCell>
        <mxCell id="F3HrLOQjKa00HK4MqhvZ-9" value="" style="endArrow=none;html=1;rounded=0;exitX=0.5;exitY=0;exitDx=0;exitDy=0;entryX=0.031;entryY=0.647;entryDx=0;entryDy=0;entryPerimeter=0;" parent="1" source="SdneMGF3WSqkRSDgV3Lc-28" target="F3HrLOQjKa00HK4MqhvZ-8" edge="1">
          <mxGeometry width="50" height="50" relative="1" as="geometry">
            <mxPoint x="1259.8999999999999" y="440" as="sourcePoint" />
            <mxPoint x="1279.8999999999999" y="370" as="targetPoint" />
          </mxGeometry>
        </mxCell>
        <mxCell id="F3HrLOQjKa00HK4MqhvZ-10" value="" style="endArrow=none;html=1;rounded=0;entryX=0;entryY=0.5;entryDx=0;entryDy=0;exitX=1.003;exitY=0.58;exitDx=0;exitDy=0;exitPerimeter=0;" parent="1" source="SdneMGF3WSqkRSDgV3Lc-28" target="F3HrLOQjKa00HK4MqhvZ-6" edge="1">
          <mxGeometry width="50" height="50" relative="1" as="geometry">
            <mxPoint x="1259.8999999999999" y="440" as="sourcePoint" />
            <mxPoint x="1309.8999999999999" y="390" as="targetPoint" />
          </mxGeometry>
        </mxCell>
        <mxCell id="x9cMc5ZENm_dU33en5SK-1" value="MATCH" style="rounded=0;whiteSpace=wrap;html=1;" parent="1" vertex="1">
          <mxGeometry x="690" y="430" width="120" height="60" as="geometry" />
        </mxCell>
        <mxCell id="x9cMc5ZENm_dU33en5SK-3" style="edgeStyle=orthogonalEdgeStyle;rounded=0;orthogonalLoop=1;jettySize=auto;html=1;entryX=0;entryY=0.5;entryDx=0;entryDy=0;endArrow=baseDash;endFill=0;" parent="1" source="x9cMc5ZENm_dU33en5SK-2" target="x9cMc5ZENm_dU33en5SK-1" edge="1">
          <mxGeometry relative="1" as="geometry" />
        </mxCell>
        <mxCell id="x9cMc5ZENm_dU33en5SK-10" value="1:N" style="edgeLabel;html=1;align=center;verticalAlign=middle;resizable=0;points=[];" parent="x9cMc5ZENm_dU33en5SK-3" vertex="1" connectable="0">
          <mxGeometry x="-0.16" relative="1" as="geometry">
            <mxPoint x="-5" as="offset" />
          </mxGeometry>
        </mxCell>
        <mxCell id="x9cMc5ZENm_dU33en5SK-4" style="edgeStyle=orthogonalEdgeStyle;rounded=0;orthogonalLoop=1;jettySize=auto;html=1;entryX=1;entryY=0.5;entryDx=0;entryDy=0;endArrow=baseDash;endFill=0;" parent="1" source="x9cMc5ZENm_dU33en5SK-2" target="EXCapHJ6gCYgwVX0uH0I-5" edge="1">
          <mxGeometry relative="1" as="geometry" />
        </mxCell>
        <mxCell id="x9cMc5ZENm_dU33en5SK-11" value="1:1" style="edgeLabel;html=1;align=center;verticalAlign=middle;resizable=0;points=[];" parent="x9cMc5ZENm_dU33en5SK-4" vertex="1" connectable="0">
          <mxGeometry relative="1" as="geometry">
            <mxPoint x="15" as="offset" />
          </mxGeometry>
        </mxCell>
        <mxCell id="x9cMc5ZENm_dU33en5SK-9" style="edgeStyle=orthogonalEdgeStyle;rounded=0;orthogonalLoop=1;jettySize=auto;html=1;entryX=0.5;entryY=0;entryDx=0;entryDy=0;endArrow=baseDash;endFill=0;" parent="1" source="x9cMc5ZENm_dU33en5SK-2" target="SdneMGF3WSqkRSDgV3Lc-23" edge="1">
          <mxGeometry relative="1" as="geometry" />
        </mxCell>
        <mxCell id="x9cMc5ZENm_dU33en5SK-2" value="CONSIGUEN" style="rhombus;whiteSpace=wrap;html=1;" parent="1" vertex="1">
          <mxGeometry x="540" y="415" width="90" height="90" as="geometry" />
        </mxCell>
        <mxCell id="x9cMc5ZENm_dU33en5SK-18" value="&lt;h1 style=&quot;margin-top: 0px; font-size: 16px;&quot;&gt;&lt;span style=&quot;font-weight: 400; text-align: center; text-wrap: nowrap;&quot;&gt;&lt;font style=&quot;font-size: 16px;&quot;&gt;En este ejercicio he realizado un diagrama según los datos que me han dado y me pedían, he puesto a todos los sexos dentro de personas ya que la app no especificaba su separación. He realizado una relación entre&amp;nbsp;&lt;/font&gt;&lt;/span&gt;&lt;/h1&gt;&lt;h1 style=&quot;margin-top: 0px; font-size: 16px;&quot;&gt;&lt;span style=&quot;font-weight: 400; text-align: center; text-wrap: nowrap;&quot;&gt;&lt;font style=&quot;font-size: 16px;&quot;&gt;personas y match ya que según solo las aficiones similares pueden&amp;nbsp;&lt;/font&gt;&lt;/span&gt;&lt;span style=&quot;background-color: initial; text-wrap: nowrap; font-weight: 400; text-align: center;&quot;&gt;juntarse, en&amp;nbsp;&lt;/span&gt;&lt;span style=&quot;background-color: initial; text-wrap: nowrap; font-weight: 400; text-align: center;&quot;&gt;esta relación he puesto el atributo aficiones porque es lo que comparten las dos identidades, y match necesita un Id&amp;nbsp; no&amp;nbsp;&lt;/span&gt;&lt;span style=&quot;background-color: initial; text-wrap: nowrap; font-weight: 400; text-align: center;&quot;&gt;nos dan ninguno&amp;nbsp;&lt;/span&gt;&lt;/h1&gt;&lt;h1 style=&quot;margin-top: 0px; font-size: 16px;&quot;&gt;&lt;span style=&quot;background-color: initial; text-wrap: nowrap; font-weight: 400; text-align: center;&quot;&gt;y&amp;nbsp; al depender de personas, es una identidad débil porque depende de es identidad. Una vez que esta hecho el match ya se puede relacionar con la etiqueta cita. La cita esta es sugerida por el&amp;nbsp;&lt;/span&gt;&lt;span style=&quot;background-color: initial; text-wrap: nowrap; font-weight: normal; text-align: center;&quot;&gt;programa cada&amp;nbsp;&lt;/span&gt;&lt;span style=&quot;background-color: initial; text-wrap: nowrap; font-weight: normal; text-align: center;&quot;&gt;24h y&lt;/span&gt;&lt;/h1&gt;&lt;h1 style=&quot;margin-top: 0px; font-size: 16px;&quot;&gt;&lt;span style=&quot;background-color: initial; text-wrap: nowrap; font-weight: normal; text-align: center;&quot;&gt;esta se&amp;nbsp;&lt;/span&gt;&lt;span style=&quot;background-color: initial; text-wrap: nowrap; text-align: center; font-weight: normal;&quot;&gt;puede realizar o no. Si la cita ha ido bien para los dos se r&lt;/span&gt;&lt;span style=&quot;background-color: initial; text-wrap: nowrap; text-align: center; font-weight: normal;&quot;&gt;ealiza&amp;nbsp;&lt;/span&gt;&lt;span style=&quot;background-color: initial; text-wrap: nowrap; font-weight: normal; text-align: center;&quot;&gt;un &quot;me gusta&quot;, si uno de los dos o los dos no le ha ido bien pues no se realiza el &quot;me gusta&quot;.&lt;/span&gt;&lt;/h1&gt;&lt;h1 style=&quot;margin-top: 0px; font-size: 16px;&quot;&gt;&lt;span style=&quot;font-weight: 400; text-align: center; text-wrap: nowrap;&quot;&gt;&lt;font style=&quot;font-size: 16px;&quot;&gt;&amp;nbsp;&lt;/font&gt;&lt;/span&gt;&lt;br&gt;&lt;/h1&gt;" style="text;html=1;whiteSpace=wrap;overflow=hidden;rounded=0;" parent="1" vertex="1">
          <mxGeometry x="70" y="860" width="1560" height="120" as="geometry" />
        </mxCell>
        <mxCell id="zyg5xjp4BJOo1bfxlwmu-10" value="" style="endArrow=none;html=1;rounded=0;" parent="1" source="EXCapHJ6gCYgwVX0uH0I-5" target="SdneMGF3WSqkRSDgV3Lc-2" edge="1">
          <mxGeometry width="50" height="50" relative="1" as="geometry">
            <mxPoint x="550" y="460" as="sourcePoint" />
            <mxPoint x="600" y="410" as="targetPoint" />
          </mxGeometry>
        </mxCell>
        <mxCell id="zyg5xjp4BJOo1bfxlwmu-11" value="" style="endArrow=none;html=1;rounded=0;" parent="1" source="EXCapHJ6gCYgwVX0uH0I-5" target="SdneMGF3WSqkRSDgV3Lc-3" edge="1">
          <mxGeometry width="50" height="50" relative="1" as="geometry">
            <mxPoint x="550" y="460" as="sourcePoint" />
            <mxPoint x="600" y="410" as="targetPoint" />
          </mxGeometry>
        </mxCell>
        <mxCell id="zyg5xjp4BJOo1bfxlwmu-12" value="" style="endArrow=none;html=1;rounded=0;" parent="1" source="EXCapHJ6gCYgwVX0uH0I-5" target="SdneMGF3WSqkRSDgV3Lc-4" edge="1">
          <mxGeometry width="50" height="50" relative="1" as="geometry">
            <mxPoint x="550" y="460" as="sourcePoint" />
            <mxPoint x="600" y="410" as="targetPoint" />
          </mxGeometry>
        </mxCell>
        <mxCell id="zyg5xjp4BJOo1bfxlwmu-13" value="" style="endArrow=none;html=1;rounded=0;" parent="1" source="EXCapHJ6gCYgwVX0uH0I-5" target="SdneMGF3WSqkRSDgV3Lc-5" edge="1">
          <mxGeometry width="50" height="50" relative="1" as="geometry">
            <mxPoint x="550" y="460" as="sourcePoint" />
            <mxPoint x="600" y="410" as="targetPoint" />
          </mxGeometry>
        </mxCell>
        <mxCell id="zyg5xjp4BJOo1bfxlwmu-14" value="" style="endArrow=none;html=1;rounded=0;" parent="1" source="EXCapHJ6gCYgwVX0uH0I-5" target="SdneMGF3WSqkRSDgV3Lc-8" edge="1">
          <mxGeometry width="50" height="50" relative="1" as="geometry">
            <mxPoint x="550" y="460" as="sourcePoint" />
            <mxPoint x="600" y="410" as="targetPoint" />
          </mxGeometry>
        </mxCell>
        <mxCell id="zyg5xjp4BJOo1bfxlwmu-15" value="CADA 24H" style="ellipse;whiteSpace=wrap;html=1;" parent="1" vertex="1">
          <mxGeometry x="904.9" y="330" width="80" height="53.33" as="geometry" />
        </mxCell>
        <mxCell id="zyg5xjp4BJOo1bfxlwmu-16" value="" style="endArrow=none;html=1;rounded=0;" parent="1" source="zyg5xjp4BJOo1bfxlwmu-15" target="EXCapHJ6gCYgwVX0uH0I-1" edge="1">
          <mxGeometry width="50" height="50" relative="1" as="geometry">
            <mxPoint x="1000.12" y="690" as="sourcePoint" />
            <mxPoint x="1050.12" y="640" as="targetPoint" />
          </mxGeometry>
        </mxCell>
        <mxCell id="zyg5xjp4BJOo1bfxlwmu-26" value="" style="endArrow=none;html=1;rounded=0;" parent="1" source="EXCapHJ6gCYgwVX0uH0I-7" target="F3HrLOQjKa00HK4MqhvZ-4" edge="1">
          <mxGeometry width="50" height="50" relative="1" as="geometry">
            <mxPoint x="950" y="570" as="sourcePoint" />
            <mxPoint x="1000" y="520" as="targetPoint" />
          </mxGeometry>
        </mxCell>
        <mxCell id="zyg5xjp4BJOo1bfxlwmu-27" value="" style="endArrow=none;html=1;rounded=0;" parent="1" source="EXCapHJ6gCYgwVX0uH0I-7" target="SdneMGF3WSqkRSDgV3Lc-14" edge="1">
          <mxGeometry width="50" height="50" relative="1" as="geometry">
            <mxPoint x="950" y="570" as="sourcePoint" />
            <mxPoint x="1000" y="520" as="targetPoint" />
          </mxGeometry>
        </mxCell>
        <mxCell id="_25HAZmG-hbL31d_wyD6-4" value="PERSONAS" style="rounded=0;whiteSpace=wrap;html=1;strokeWidth=1;" vertex="1" parent="1">
          <mxGeometry x="610" y="1320" width="120" height="60" as="geometry" />
        </mxCell>
        <mxCell id="_25HAZmG-hbL31d_wyD6-5" value="TELÉFONO" style="ellipse;whiteSpace=wrap;html=1;" vertex="1" parent="1">
          <mxGeometry x="500" y="1444.5" width="90" height="60" as="geometry" />
        </mxCell>
        <mxCell id="_25HAZmG-hbL31d_wyD6-6" value="DIRECCIÓN" style="ellipse;whiteSpace=wrap;html=1;dashed=1;" vertex="1" parent="1">
          <mxGeometry x="470" y="1370" width="90" height="60" as="geometry" />
        </mxCell>
        <mxCell id="_25HAZmG-hbL31d_wyD6-7" value="NOMBRE" style="ellipse;whiteSpace=wrap;html=1;" vertex="1" parent="1">
          <mxGeometry x="470" y="1293" width="90" height="60" as="geometry" />
        </mxCell>
        <mxCell id="_25HAZmG-hbL31d_wyD6-8" value="&lt;u&gt;DNI&lt;/u&gt;" style="ellipse;whiteSpace=wrap;html=1;" vertex="1" parent="1">
          <mxGeometry x="365" y="1190" width="90" height="60" as="geometry" />
        </mxCell>
        <mxCell id="_25HAZmG-hbL31d_wyD6-9" value="FOTO" style="ellipse;whiteSpace=wrap;html=1;" vertex="1" parent="1">
          <mxGeometry x="320" y="1340" width="90" height="60" as="geometry" />
        </mxCell>
        <mxCell id="_25HAZmG-hbL31d_wyD6-10" value="" style="endArrow=none;html=1;rounded=0;" edge="1" parent="1" source="_25HAZmG-hbL31d_wyD6-4" target="_25HAZmG-hbL31d_wyD6-5">
          <mxGeometry width="50" height="50" relative="1" as="geometry">
            <mxPoint x="800" y="1350" as="sourcePoint" />
            <mxPoint x="850" y="1300" as="targetPoint" />
          </mxGeometry>
        </mxCell>
        <mxCell id="_25HAZmG-hbL31d_wyD6-11" value="" style="endArrow=none;html=1;rounded=0;" edge="1" parent="1" source="_25HAZmG-hbL31d_wyD6-4" target="_25HAZmG-hbL31d_wyD6-6">
          <mxGeometry width="50" height="50" relative="1" as="geometry">
            <mxPoint x="800" y="1350" as="sourcePoint" />
            <mxPoint x="850" y="1300" as="targetPoint" />
          </mxGeometry>
        </mxCell>
        <mxCell id="_25HAZmG-hbL31d_wyD6-12" value="" style="endArrow=none;html=1;rounded=0;" edge="1" parent="1" source="_25HAZmG-hbL31d_wyD6-4" target="_25HAZmG-hbL31d_wyD6-7">
          <mxGeometry width="50" height="50" relative="1" as="geometry">
            <mxPoint x="800" y="1350" as="sourcePoint" />
            <mxPoint x="850" y="1300" as="targetPoint" />
          </mxGeometry>
        </mxCell>
        <mxCell id="_25HAZmG-hbL31d_wyD6-13" value="" style="endArrow=none;html=1;rounded=0;" edge="1" parent="1" source="_25HAZmG-hbL31d_wyD6-4" target="_25HAZmG-hbL31d_wyD6-8">
          <mxGeometry width="50" height="50" relative="1" as="geometry">
            <mxPoint x="800" y="1350" as="sourcePoint" />
            <mxPoint x="850" y="1300" as="targetPoint" />
          </mxGeometry>
        </mxCell>
        <mxCell id="_25HAZmG-hbL31d_wyD6-14" value="" style="endArrow=none;html=1;rounded=0;" edge="1" parent="1" source="_25HAZmG-hbL31d_wyD6-4" target="_25HAZmG-hbL31d_wyD6-9">
          <mxGeometry width="50" height="50" relative="1" as="geometry">
            <mxPoint x="800" y="1350" as="sourcePoint" />
            <mxPoint x="850" y="1300" as="targetPoint" />
          </mxGeometry>
        </mxCell>
        <mxCell id="_25HAZmG-hbL31d_wyD6-15" value="CONSIGUEN" style="rhombus;whiteSpace=wrap;html=1;" vertex="1" parent="1">
          <mxGeometry x="615" y="1460" width="90" height="90" as="geometry" />
        </mxCell>
        <mxCell id="_25HAZmG-hbL31d_wyD6-16" value="PERSONAS" style="rounded=0;whiteSpace=wrap;html=1;strokeWidth=1;" vertex="1" parent="1">
          <mxGeometry x="600" y="1610" width="120" height="60" as="geometry" />
        </mxCell>
        <mxCell id="_25HAZmG-hbL31d_wyD6-17" value="CATEGORIAS" style="rounded=0;whiteSpace=wrap;html=1;strokeWidth=1;" vertex="1" parent="1">
          <mxGeometry x="964.78" y="1610" width="120" height="60" as="geometry" />
        </mxCell>
        <mxCell id="_25HAZmG-hbL31d_wyD6-20" value="CITA" style="rounded=0;whiteSpace=wrap;html=1;strokeWidth=1;" vertex="1" parent="1">
          <mxGeometry x="1170" y="1320" width="120" height="60" as="geometry" />
        </mxCell>
        <mxCell id="_25HAZmG-hbL31d_wyD6-21" value="CONSIGUEN" style="rhombus;whiteSpace=wrap;html=1;" vertex="1" parent="1">
          <mxGeometry x="994.78" y="1444.5" width="90" height="90" as="geometry" />
        </mxCell>
        <mxCell id="_25HAZmG-hbL31d_wyD6-22" value="CONSIGUEN" style="rhombus;whiteSpace=wrap;html=1;" vertex="1" parent="1">
          <mxGeometry x="950" y="1305" width="90" height="90" as="geometry" />
        </mxCell>
        <mxCell id="_25HAZmG-hbL31d_wyD6-23" value="" style="endArrow=none;html=1;rounded=0;" edge="1" parent="1" source="_25HAZmG-hbL31d_wyD6-4" target="_25HAZmG-hbL31d_wyD6-21">
          <mxGeometry width="50" height="50" relative="1" as="geometry">
            <mxPoint x="760" y="1160" as="sourcePoint" />
            <mxPoint x="810" y="1110" as="targetPoint" />
            <Array as="points">
              <mxPoint x="850" y="1490" />
            </Array>
          </mxGeometry>
        </mxCell>
        <mxCell id="_25HAZmG-hbL31d_wyD6-46" value="1:1" style="edgeLabel;html=1;align=center;verticalAlign=middle;resizable=0;points=[];" vertex="1" connectable="0" parent="_25HAZmG-hbL31d_wyD6-23">
          <mxGeometry x="0.5533" y="-3" relative="1" as="geometry">
            <mxPoint x="44" y="-3" as="offset" />
          </mxGeometry>
        </mxCell>
        <mxCell id="_25HAZmG-hbL31d_wyD6-24" value="" style="endArrow=none;html=1;rounded=0;" edge="1" parent="1" source="_25HAZmG-hbL31d_wyD6-4" target="_25HAZmG-hbL31d_wyD6-22">
          <mxGeometry width="50" height="50" relative="1" as="geometry">
            <mxPoint x="760" y="1160" as="sourcePoint" />
            <mxPoint x="810" y="1110" as="targetPoint" />
          </mxGeometry>
        </mxCell>
        <mxCell id="_25HAZmG-hbL31d_wyD6-45" value="1:1" style="edgeLabel;html=1;align=center;verticalAlign=middle;resizable=0;points=[];" vertex="1" connectable="0" parent="_25HAZmG-hbL31d_wyD6-24">
          <mxGeometry x="0.6012" y="-3" relative="1" as="geometry">
            <mxPoint x="26" y="-3" as="offset" />
          </mxGeometry>
        </mxCell>
        <mxCell id="_25HAZmG-hbL31d_wyD6-25" value="" style="endArrow=none;html=1;rounded=0;" edge="1" parent="1" source="_25HAZmG-hbL31d_wyD6-21" target="_25HAZmG-hbL31d_wyD6-20">
          <mxGeometry width="50" height="50" relative="1" as="geometry">
            <mxPoint x="760" y="1160" as="sourcePoint" />
            <mxPoint x="810" y="1110" as="targetPoint" />
            <Array as="points">
              <mxPoint x="1230" y="1490" />
            </Array>
          </mxGeometry>
        </mxCell>
        <mxCell id="_25HAZmG-hbL31d_wyD6-47" value="0:N" style="edgeLabel;html=1;align=center;verticalAlign=middle;resizable=0;points=[];" vertex="1" connectable="0" parent="_25HAZmG-hbL31d_wyD6-25">
          <mxGeometry x="-0.3196" y="-4" relative="1" as="geometry">
            <mxPoint x="-61" y="-4" as="offset" />
          </mxGeometry>
        </mxCell>
        <mxCell id="_25HAZmG-hbL31d_wyD6-26" value="" style="endArrow=none;html=1;rounded=0;" edge="1" parent="1" source="_25HAZmG-hbL31d_wyD6-22" target="_25HAZmG-hbL31d_wyD6-20">
          <mxGeometry width="50" height="50" relative="1" as="geometry">
            <mxPoint x="760" y="1160" as="sourcePoint" />
            <mxPoint x="810" y="1110" as="targetPoint" />
          </mxGeometry>
        </mxCell>
        <mxCell id="_25HAZmG-hbL31d_wyD6-44" value="0,N" style="edgeLabel;html=1;align=center;verticalAlign=middle;resizable=0;points=[];" vertex="1" connectable="0" parent="_25HAZmG-hbL31d_wyD6-26">
          <mxGeometry x="-0.3805" y="-1" relative="1" as="geometry">
            <mxPoint x="-20" y="-1" as="offset" />
          </mxGeometry>
        </mxCell>
        <mxCell id="_25HAZmG-hbL31d_wyD6-27" value="ENLAZADO" style="rhombus;whiteSpace=wrap;html=1;" vertex="1" parent="1">
          <mxGeometry x="615" y="1180" width="90" height="90" as="geometry" />
        </mxCell>
        <mxCell id="_25HAZmG-hbL31d_wyD6-28" value="" style="endArrow=none;html=1;rounded=0;" edge="1" parent="1" source="_25HAZmG-hbL31d_wyD6-27" target="_25HAZmG-hbL31d_wyD6-4">
          <mxGeometry width="50" height="50" relative="1" as="geometry">
            <mxPoint x="760" y="1160" as="sourcePoint" />
            <mxPoint x="540" y="1225" as="targetPoint" />
            <Array as="points">
              <mxPoint x="580" y="1225" />
            </Array>
          </mxGeometry>
        </mxCell>
        <mxCell id="_25HAZmG-hbL31d_wyD6-51" value="1:N" style="edgeLabel;html=1;align=center;verticalAlign=middle;resizable=0;points=[];" vertex="1" connectable="0" parent="_25HAZmG-hbL31d_wyD6-28">
          <mxGeometry x="0.1802" y="-2" relative="1" as="geometry">
            <mxPoint x="-7" y="-45" as="offset" />
          </mxGeometry>
        </mxCell>
        <mxCell id="_25HAZmG-hbL31d_wyD6-29" value="" style="endArrow=none;html=1;rounded=0;exitX=1;exitY=0.5;exitDx=0;exitDy=0;" edge="1" parent="1" source="_25HAZmG-hbL31d_wyD6-27" target="_25HAZmG-hbL31d_wyD6-4">
          <mxGeometry width="50" height="50" relative="1" as="geometry">
            <mxPoint x="760" y="1160" as="sourcePoint" />
            <mxPoint x="810" y="1110" as="targetPoint" />
            <Array as="points">
              <mxPoint x="740" y="1225" />
            </Array>
          </mxGeometry>
        </mxCell>
        <mxCell id="_25HAZmG-hbL31d_wyD6-50" value="1:N" style="edgeLabel;html=1;align=center;verticalAlign=middle;resizable=0;points=[];" vertex="1" connectable="0" parent="_25HAZmG-hbL31d_wyD6-29">
          <mxGeometry x="0.0351" y="-1" relative="1" as="geometry">
            <mxPoint x="3" y="-34" as="offset" />
          </mxGeometry>
        </mxCell>
        <mxCell id="_25HAZmG-hbL31d_wyD6-30" value="UBICACIONES" style="rounded=0;whiteSpace=wrap;html=1;strokeWidth=1;" vertex="1" parent="1">
          <mxGeometry x="1169.9" y="1090" width="120" height="60" as="geometry" />
        </mxCell>
        <mxCell id="_25HAZmG-hbL31d_wyD6-31" value="CONSIGUEN" style="rhombus;whiteSpace=wrap;html=1;" vertex="1" parent="1">
          <mxGeometry x="1185" y="1190" width="90" height="90" as="geometry" />
        </mxCell>
        <mxCell id="_25HAZmG-hbL31d_wyD6-32" value="" style="endArrow=none;html=1;rounded=0;" edge="1" parent="1" source="_25HAZmG-hbL31d_wyD6-31" target="_25HAZmG-hbL31d_wyD6-20">
          <mxGeometry width="50" height="50" relative="1" as="geometry">
            <mxPoint x="740" y="1260" as="sourcePoint" />
            <mxPoint x="790" y="1210" as="targetPoint" />
          </mxGeometry>
        </mxCell>
        <mxCell id="_25HAZmG-hbL31d_wyD6-48" value="1:N" style="edgeLabel;html=1;align=center;verticalAlign=middle;resizable=0;points=[];" vertex="1" connectable="0" parent="_25HAZmG-hbL31d_wyD6-32">
          <mxGeometry x="-0.269" y="-3" relative="1" as="geometry">
            <mxPoint as="offset" />
          </mxGeometry>
        </mxCell>
        <mxCell id="_25HAZmG-hbL31d_wyD6-33" value="" style="endArrow=none;html=1;rounded=0;" edge="1" parent="1" source="_25HAZmG-hbL31d_wyD6-31" target="_25HAZmG-hbL31d_wyD6-30">
          <mxGeometry width="50" height="50" relative="1" as="geometry">
            <mxPoint x="740" y="1260" as="sourcePoint" />
            <mxPoint x="790" y="1210" as="targetPoint" />
          </mxGeometry>
        </mxCell>
        <mxCell id="_25HAZmG-hbL31d_wyD6-49" value="1:1" style="edgeLabel;html=1;align=center;verticalAlign=middle;resizable=0;points=[];" vertex="1" connectable="0" parent="_25HAZmG-hbL31d_wyD6-33">
          <mxGeometry x="0.1509" y="1" relative="1" as="geometry">
            <mxPoint as="offset" />
          </mxGeometry>
        </mxCell>
        <mxCell id="_25HAZmG-hbL31d_wyD6-34" value="CONSIGUEN" style="rhombus;whiteSpace=wrap;html=1;" vertex="1" parent="1">
          <mxGeometry x="800" y="1595" width="90" height="90" as="geometry" />
        </mxCell>
        <mxCell id="_25HAZmG-hbL31d_wyD6-35" value="" style="endArrow=none;html=1;rounded=0;" edge="1" parent="1" source="_25HAZmG-hbL31d_wyD6-16" target="_25HAZmG-hbL31d_wyD6-34">
          <mxGeometry width="50" height="50" relative="1" as="geometry">
            <mxPoint x="740" y="1550" as="sourcePoint" />
            <mxPoint x="790" y="1500" as="targetPoint" />
          </mxGeometry>
        </mxCell>
        <mxCell id="_25HAZmG-hbL31d_wyD6-42" value="1,N" style="edgeLabel;html=1;align=center;verticalAlign=middle;resizable=0;points=[];" vertex="1" connectable="0" parent="_25HAZmG-hbL31d_wyD6-35">
          <mxGeometry x="0.2643" y="1" relative="1" as="geometry">
            <mxPoint as="offset" />
          </mxGeometry>
        </mxCell>
        <mxCell id="_25HAZmG-hbL31d_wyD6-36" value="" style="endArrow=none;html=1;rounded=0;" edge="1" parent="1" source="_25HAZmG-hbL31d_wyD6-16" target="_25HAZmG-hbL31d_wyD6-15">
          <mxGeometry width="50" height="50" relative="1" as="geometry">
            <mxPoint x="740" y="1550" as="sourcePoint" />
            <mxPoint x="790" y="1500" as="targetPoint" />
          </mxGeometry>
        </mxCell>
        <mxCell id="_25HAZmG-hbL31d_wyD6-41" value="1,N" style="edgeLabel;html=1;align=center;verticalAlign=middle;resizable=0;points=[];" vertex="1" connectable="0" parent="_25HAZmG-hbL31d_wyD6-36">
          <mxGeometry x="0.4651" y="-3" relative="1" as="geometry">
            <mxPoint as="offset" />
          </mxGeometry>
        </mxCell>
        <mxCell id="_25HAZmG-hbL31d_wyD6-37" value="" style="endArrow=none;html=1;rounded=0;" edge="1" parent="1" source="_25HAZmG-hbL31d_wyD6-4" target="_25HAZmG-hbL31d_wyD6-15">
          <mxGeometry width="50" height="50" relative="1" as="geometry">
            <mxPoint x="740" y="1550" as="sourcePoint" />
            <mxPoint x="790" y="1500" as="targetPoint" />
          </mxGeometry>
        </mxCell>
        <mxCell id="_25HAZmG-hbL31d_wyD6-40" value="1,N" style="edgeLabel;html=1;align=center;verticalAlign=middle;resizable=0;points=[];" vertex="1" connectable="0" parent="_25HAZmG-hbL31d_wyD6-37">
          <mxGeometry x="0.1988" y="3" relative="1" as="geometry">
            <mxPoint as="offset" />
          </mxGeometry>
        </mxCell>
        <mxCell id="_25HAZmG-hbL31d_wyD6-38" value="" style="endArrow=none;html=1;rounded=0;" edge="1" parent="1" source="_25HAZmG-hbL31d_wyD6-34" target="_25HAZmG-hbL31d_wyD6-17">
          <mxGeometry width="50" height="50" relative="1" as="geometry">
            <mxPoint x="740" y="1550" as="sourcePoint" />
            <mxPoint x="790" y="1500" as="targetPoint" />
          </mxGeometry>
        </mxCell>
        <mxCell id="_25HAZmG-hbL31d_wyD6-43" value="0,1" style="edgeLabel;html=1;align=center;verticalAlign=middle;resizable=0;points=[];" vertex="1" connectable="0" parent="_25HAZmG-hbL31d_wyD6-38">
          <mxGeometry x="-0.2206" y="3" relative="1" as="geometry">
            <mxPoint as="offset" />
          </mxGeometry>
        </mxCell>
        <mxCell id="_25HAZmG-hbL31d_wyD6-52" value="ME GUSTA" style="ellipse;whiteSpace=wrap;html=1;" vertex="1" parent="1">
          <mxGeometry x="950" y="1220" width="90" height="60" as="geometry" />
        </mxCell>
        <mxCell id="_25HAZmG-hbL31d_wyD6-53" value="ME GUSTA" style="ellipse;whiteSpace=wrap;html=1;" vertex="1" parent="1">
          <mxGeometry x="1114.78" y="1524" width="90" height="60" as="geometry" />
        </mxCell>
        <mxCell id="_25HAZmG-hbL31d_wyD6-54" value="" style="endArrow=none;html=1;rounded=0;" edge="1" parent="1" source="_25HAZmG-hbL31d_wyD6-21" target="_25HAZmG-hbL31d_wyD6-53">
          <mxGeometry width="50" height="50" relative="1" as="geometry">
            <mxPoint x="740" y="1360" as="sourcePoint" />
            <mxPoint x="790" y="1310" as="targetPoint" />
          </mxGeometry>
        </mxCell>
        <mxCell id="_25HAZmG-hbL31d_wyD6-55" value="" style="endArrow=none;html=1;rounded=0;" edge="1" parent="1" source="_25HAZmG-hbL31d_wyD6-22" target="_25HAZmG-hbL31d_wyD6-52">
          <mxGeometry width="50" height="50" relative="1" as="geometry">
            <mxPoint x="740" y="1360" as="sourcePoint" />
            <mxPoint x="790" y="1310" as="targetPoint" />
          </mxGeometry>
        </mxCell>
      </root>
    </mxGraphModel>
  </diagram>
</mxfile>
